<?xml version="1.0" encoding="utf-8"?>
<!-- Generator: Adobe Illustrator 25.2.3, SVG Export Plug-In . SVG Version: 6.00 Build 0)  -->
<svg version="1.1" xmlns="http://www.w3.org/2000/svg" xmlns:xlink="http://www.w3.org/1999/xlink" x="0px" y="0px"
	 viewBox="0 0 236.8 42" style="enable-background:new 0 0 236.8 42;" xml:space="preserve">
<style type="text/css">
	.st0{display:none;}
	.st1{display:inline;}
	.st2{display:inline;fill:#0E2866;}
	.st3{display:inline;fill:none;}
	.st4{fill:#0E2866;}
	.st5{fill:#0077FF;}
	.st6{fill:none;}
	.st7{fill:#FFFFFF;}
	.st8{display:inline;fill:#0077FF;}
</style>
<g id="Layer_1" class="st0">
	<g id="full_color" class="st1">
		<g id="MediaFire" class="st0">
			<path class="st2" d="M87.6,6.3H101l0.4,16.8h0.1L110,6.3h13.7L117,37.5h-8.9L113,16h-0.1l-10.2,21.5h-7.1L94.4,16h-0.1L90,37.5
				h-8.9L87.6,6.3z"/>
			<path class="st2" d="M144.8,30.9c-0.6,1.5-2.3,7.2-12.1,7.2c-8,0-11.3-4.5-11.3-10c0-10.4,8-13.8,13.6-13.8
				c5,0,11.1,2.8,11.1,9.9c0,1.3-0.1,2.6-0.4,3.9h-16.2c0,2.4,0.8,4.4,3.5,4.4c1.3,0.1,2.7-0.5,3.4-1.6H144.8z M138,23.6
				c0.1-0.2,0.1-0.5,0.1-0.7c0-1.7-1.3-3-2.9-3.1c-0.1,0-0.2,0-0.4,0c-2.3,0-3.8,1.4-4.5,3.8H138z"/>
			<path class="st2" d="M161.9,34.9L161.9,34.9c-1.4,2-3.7,3.2-6.1,3.2c-7.3,0-8.3-6.5-8.3-9.2c0-8.6,4.5-14.6,11.3-14.6
				c2.6,0,5.1,0.8,6.5,3.4l2.4-11.3h8.6l-6.5,31.2h-8.5L161.9,34.9z M163.1,24.8c0-2.5-0.9-4.2-3.1-4.2c-3.4,0-4.6,4.2-4.6,7.5
				c0,2,0.9,3.7,3.2,3.7C162,31.8,163.1,27.5,163.1,24.8z"/>
			<path class="st2" d="M177.1,14.8h8.6L181,37.5h-8.6L177.1,14.8z M186.2,12.4h-8.6l1.3-6.1h8.6L186.2,12.4z"/>
			<path class="st2" d="M215.1,6.3h24.1l-1.8,8.5h-14.5l-0.8,3.9h12.3l-1.5,7.4h-12.3l-2.4,11.4h-9.6L215.1,6.3z"/>
			<path class="st2" d="M239.8,14.8h8.6l-4.7,22.7h-8.6L239.8,14.8z"/>
			<path class="st2" d="M291.2,24.2c0-7.1-6.1-9.9-11.1-9.9c-2.9,0-5.7,0.8-8.2,2.5c-1.6,1.1-2.9,2.6-3.9,4.3
				c-1.1,2.2-1.6,4.6-1.6,7c0,5.5,3.2,10,11.3,10c9.8,0,11.5-5.6,12.1-7.2h-8.3c-0.8,1.1-2.1,1.7-3.4,1.6c-2.7,0-3.5-2-3.5-4.4h16.2
				C291.1,26.8,291.2,25.5,291.2,24.2z M283,23.6h-7.7c0.7-2.4,2.2-3.8,4.5-3.8c1.6-0.2,3.1,1.1,3.3,2.7c0,0.1,0,0.2,0,0.4
				C283.1,23.1,283,23.4,283,23.6z"/>
			<path class="st3" d="M265.8,22l0.9-2C266.4,20.6,266.1,21.3,265.8,22z"/>
			<path class="st2" d="M269.1,14.8c-1.1-0.4-2.2-0.5-3.4-0.5h-0.1c-0.8,0-1.7,0.1-2.5,0.4c-1.9,0.7-3.5,2-4.6,3.7h-0.1l0.1-0.7
				l0.6-2.9h-8.4l-4.7,22.7h8.6l2.2-10.5c1-3.9,2.9-5.2,6.2-5.2l0,0c0.8,0,1.7,0.1,2.5,0.3L269.1,14.8z"/>
			<path class="st2" d="M198.5,14.3c-5.5,0-10.2,1.4-11.6,7.4h8.1c0.5-1.7,1.7-2.3,3.4-2.3c1.3,0,2.7,0.4,2.7,2
				c0,2.8-3.9,2.5-6.3,2.6c-6.5,0.5-11,2.1-11,8.1c0,4.3,3.4,6,7.3,6c2.5,0,5.5-0.9,7-2.8l0.1-0.2l0,0l-0.5,2.3h8.3l3-14.2
				c0.2-1,0.3-2,0.3-3.1C209.5,14.8,202.6,14.3,198.5,14.3z M199.6,28.9c-0.6,2.5-1.9,4.1-4.3,4.1c-1.4,0-2.7-0.4-2.7-2
				s1.3-2.4,2.8-2.5c1.6,0,3.1-0.4,4.6-1L199.6,28.9z"/>
			<polygon class="st2" points="248.9,12.4 240.3,12.4 241.5,6.3 250.2,6.3 			"/>
		</g>
	</g>
</g>
<g id="Layer_2">
	<g>
		<g>
			<path class="st4" d="M74.4,26.6c0.9-4.4,2.3-10.3,3.1-13.6h-0.3C75,19.1,71,28.4,67.8,35.7h-6.3c0.2-7.5,0.3-16.5,0.5-22.7h-0.3
				c-0.5,3.3-1.6,9-2.6,13.9l-1.9,8.9h-6.6l5.9-28.1h10.6c0.1,5.1,0.1,13.8-0.1,17.8h0.1c1.5-4.4,5-11.8,7.7-17.8h10.7l-5.9,28.1
				h-7.2L74.4,26.6z"/>
			<path class="st4" d="M93,26.5c-0.1,0.4-0.2,1.1-0.2,1.6c0,1.6,0.5,3,2.3,3c1.8,0,2.4-1.1,2.9-2.2h7.2c-1.4,4-4.2,7.1-10.6,7.1
				c-6.7,0-9-3.7-9-8.9c0-4.7,2.7-13.5,12.1-13.5c6.3,0,8.9,3.7,8.9,8.1c0,1.1-0.2,2.6-0.7,4.7H93z M99.5,22.5
				c0.2-0.6,0.2-1.1,0.2-1.5c0-1.3-0.6-2.4-2.2-2.4c-2.1,0-3.1,2.1-3.5,4H99.5z"/>
			<path class="st4" d="M133.7,6.1l-4.9,23.3c-0.6,2.9-1.1,5.2-1.3,6.3h-7c0-0.5,0.1-1.5,0.3-2.1c-1.3,1.7-3,2.5-5.8,2.5
				c-4.1,0-6.4-3.1-6.4-8.1c0-6.2,3.5-14.3,10.7-14.3c2.6,0,4.4,1,5,2.1l2.1-9.8H133.7z M116.2,27.8c0,2.2,0.8,3.3,2.3,3.3
				c2.9,0,4.1-4.8,4.5-7.4c0.5-2.9,0.4-4.7-2-4.7C117.7,19,116.2,24.9,116.2,27.8z"/>
			<path class="st4" d="M136.4,14.2h7.3l-4.5,21.5h-7.3L136.4,14.2z M138.1,6.1h7.3l-1.1,5.4H137L138.1,6.1z"/>
			<path class="st4" d="M163.5,30c-0.5,2.4-1,4.6-1.1,5.8h-7c0-0.5,0.1-1.1,0.2-1.9c-1.5,1.7-3.2,2.3-5.8,2.3
				c-3.5,0-5.7-2.3-5.7-5.8c0-4.4,2.8-7.5,9.2-8.1c1.6-0.2,3.1-0.3,4.7-0.3l0.2-0.8c0.4-1.8,0-3-1.9-3c-1.9,0-2.3,1.2-2.7,2.2h-7
				c0.8-3.4,2.9-6.6,10.1-6.6c6.5,0,9.6,2.7,8.3,8.7L163.5,30z M157.2,26c-0.8,0-1.6,0-2.5,0.1c-1.7,0.3-3.2,1.2-3.2,3.1
				c0,1.1,0.5,1.8,1.8,1.8c2.5,0,3.2-2,3.7-4.6L157.2,26z"/>
			<path class="st4" d="M167.5,35.7l3.5-16.4h-2.7l1.1-5.1h2.7l0.3-1.6c1-4.5,3.1-6.8,7.8-6.8c1.4,0,2.8,0.2,3.5,0.4l-1.1,4.8
				c-0.3-0.1-0.8-0.1-1.1-0.1c-1.2,0-1.7,0.7-1.9,1.9l-0.3,1.3h3.2l-1.1,5.1h-3.2l-3.5,16.4H167.5z"/>
			<path class="st4" d="M185,14.2h7.3l-4.5,21.5h-7.3L185,14.2z M186.7,6.1h7.3l-1.1,5.4h-7.3L186.7,6.1z"/>
			<path class="st4" d="M192.2,35.7l6.2-29.6h7.3l-6.2,29.6H192.2z"/>
			<path class="st4" d="M212.4,26.5c-0.1,0.4-0.2,1.1-0.2,1.6c0,1.6,0.5,3,2.3,3c1.8,0,2.4-1.1,2.9-2.2h7.2c-1.4,4-4.2,7.1-10.6,7.1
				c-6.7,0-9-3.7-9-8.9c0-4.7,2.7-13.5,12.1-13.5c6.3,0,8.9,3.7,8.9,8.1c0,1.1-0.2,2.6-0.7,4.7H212.4z M218.8,22.5
				c0.2-0.6,0.2-1.1,0.2-1.5c0-1.3-0.6-2.4-2.2-2.4c-2.1,0-3.1,2.1-3.5,4H218.8z"/>
		</g>
	</g>
	<g id="flame" class="st0">
		<path class="st5" d="M34.8,12.9c0,1.6-0.2,3.2-0.6,4.7c-0.3,1.5-1,2.9-1,4.5c0,1.1,1,2.1,2.3,2.1c1.2,0,2.3-0.9,2.3-2.1
			c0-0.7-0.2-1.3-0.4-2c0.2,0.2,0.3,0.3,0.4,0.5c1.7,2.3,2.6,4.9,2.4,7.6c-0.2,2.8-1.3,5.8-3.7,8c-2.8,2.6-7.1,3.8-11.4,3.3
			c-4.4-0.6-8-2.9-9.7-6.1C14.3,31,14.1,28.4,15,26c1-3.1,3.2-5.9,4.8-8.8c0.8-1.7,1.4-3.5,1.7-5.3v0c-0.1,0.7,0.1,1.4,0.4,2.1
			c0.5,0.9,1.8,0.9,2.8,0.4c1.1-0.5,1.6-1.6,1.9-2.6c0.5-1.6,0.7-3.4,0.3-5c-0.2-1.2-0.7-2.4-1.6-3.4C25,3,24.5,2.6,24,2.4
			C29.4,4,28.8,7.1,30.3,9c0.4,0.5,1.3,0.6,1.9,0.3c0.5-0.2,0.7-0.7,0.6-1.1c-0.2-0.5-0.5-1-0.9-1.5l-0.4-0.4
			C31.5,6.3,34.8,7.8,34.8,12.9z"/>
		<path class="st6" d="M24.8,14.4L24.8,14.4L24.8,14.4z"/>
		<path class="st7" d="M24.9,14.4L24.9,14.4L24.9,14.4z"/>
		<path class="st8" d="M36.9,27.9c0-4.6-3.7-6.5-7.2-11.5c-6-8.7-3.5-13.8-3.8-13.8S23.7,6,18.4,14.6c-2.8,4.1-4.3,8.6-4.6,13.3l0,0
			c0,5,5.2,9.1,11.5,9.1S36.9,32.9,36.9,27.9L36.9,27.9z"/>
	</g>
	<path id="path4" class="st5" d="M11,24.8c0-3.3,0.9-5.9,2.3-8c0,4,1,5.4,3.1,5.4c1.4,0,2.9-1.1,2.9-2.9c0-1.6-1.1-4.6-1.1-7.8
		s1.1-6.6,5.4-9.1c-1,2.6-1.4,4.7-1.4,6.5c0,4.7,2.8,6.8,5.3,6.8c2,0,4.2-1.3,4.2-5.2c1.4,1.5,2,3.2,2,5c0,2.7-1.5,5.2-1.5,7.4
		c0,1.8,1.5,2.9,2.9,2.9c2.5,0,3.3-2.3,3.3-6c0.8,1.3,1.4,3.8,1.4,6c0,6.5-6.1,11.1-12.9,11.1c5.7-2.2,6.8-5,6.8-8.3
		c-1.4,2.5-2.9,2.9-3.6,2.9c-4.3,0,0.4-8.3-7.2-14c1.2,2.7,1.7,5,1.7,6.8c0,4-2.2,6.1-4.2,6.1c-1.8,0-3.5-1.4-4.2-4.4
		c0,4.2,1.2,8.2,6.8,10.9C14.3,35.6,11,30.2,11,24.8z"/>
</g>
</svg>
